{
    "asset" : {
        "generator" : "Khronos glTF Blender I/O v1.6.16",
        "version" : "2.0"
    },
    "scene" : 0,
    "scenes" : [
        {
            "extras" : {
                "b_settings" : 1,
                "s_output" : "exporting...",
                "b_export" : 1,
                "export_path" : "C:\\Users\\azhen\\Downloads\\",
                "s_project_name" : "castle2",
                "b_renderer" : 0,
                "b_player" : 0,
                "b_interactive" : 0,
                "s_aframe_version" : "1.4.0",
                "s_cubemap_path" : "/env/"
            },
            "name" : "Scene",
            "nodes" : [
                0
            ]
        }
    ],
    "nodes" : [
        {
            "mesh" : 0,
            "name" : "Wall.001",
            "rotation" : [
                0,
                0.6940324306488037,
                0,
                0.7199438214302063
            ]
        }
    ],
    "materials" : [
        {
            "doubleSided" : true,
            "name" : "Material.008",
            "pbrMetallicRoughness" : {
                "baseColorFactor" : [
                    0.5630000233650208,
                    0.49580949544906616,
                    0.5276557803153992,
                    1
                ],
                "metallicFactor" : 0,
                "roughnessFactor" : 0.5
            }
        }
    ],
    "meshes" : [
        {
            "extras" : {
                "Wall" : 1,
                "change" : 0,
                "ConstructTog" : 1,
                "RadialTog" : 0,
                "SlopeTog" : 0,
                "WallStart" : -20,
                "WallEnd" : 20,
                "WallBottom" : 0,
                "WallTop" : 18,
                "EdgeOffset" : 0.6000000238418579,
                "Width" : 1.5,
                "WidthVariance" : 0.5,
                "WidthMinimum" : 0.5,
                "Height" : 0.699999988079071,
                "HeightVariance" : 0.30000001192092896,
                "HeightMinimum" : 0.25,
                "Depth" : 2,
                "DepthVariance" : 0.10000000149011612,
                "DepthMinimum" : 1,
                "MergeBlock" : 0,
                "Grout" : 0.10000000149011612,
                "GroutVariance" : 0.029999999329447746,
                "GroutDepth" : 0.10000000149011612,
                "GroutDepthVariance" : 0.029999999329447746,
                "GroutEdge" : 0,
                "Opening1Tog" : 0,
                "Opening1Width" : 7,
                "Opening1Height" : 7,
                "Opening1X" : 5,
                "Opening1Z" : 3.770000457763672,
                "Opening1Repeat" : 0,
                "Opening1TopArchTog" : 1,
                "Opening1TopArch" : 2.5,
                "Opening1TopArchThickness" : 0.75,
                "Opening1BtmArchTog" : 0,
                "Opening1BtmArch" : 1,
                "Opening1BtmArchThickness" : 0.5,
                "CrenelTog" : 0,
                "CrenelXP" : 0.25,
                "CrenelZP" : 0.10000000149011612,
                "SlotTog" : 0,
                "SlotRpt" : 0,
                "SlotWdg" : 0,
                "SlotX" : 0,
                "SlotGap" : 0.5,
                "SlotV" : 1,
                "SlotVH" : 3.5,
                "SlotVBtm" : 5,
                "SlotH" : 0,
                "SlotHW" : 2.5,
                "SlotHBtm" : 5.5,
                "ShelfTog" : 0,
                "ShelfX" : -5,
                "ShelfZ" : 10,
                "ShelfH" : 1,
                "ShelfW" : 5,
                "ShelfD" : 2,
                "ShelfBack" : 0,
                "StepTog" : 0,
                "StepX" : -9,
                "StepZ" : 0,
                "StepH" : 10,
                "StepW" : 8,
                "StepD" : 1,
                "StepV" : 0.699999988079071,
                "StepT" : 1,
                "StepLeft" : 0,
                "StepOnly" : 0,
                "StepBack" : 0
            },
            "name" : "Wall.004",
            "primitives" : [
                {
                    "attributes" : {
                        "POSITION" : 0,
                        "NORMAL" : 1
                    },
                    "indices" : 2,
                    "material" : 0
                }
            ]
        }
    ],
    "accessors" : [
        {
            "bufferView" : 0,
            "componentType" : 5126,
            "count" : 77760,
            "max" : [
                18.463623046875,
                9.73652172088623,
                1.047760248184204
            ],
            "min" : [
                -18.39243507385254,
                -8.157654762268066,
                -9.066787719726562
            ],
            "type" : "VEC3"
        },
        {
            "bufferView" : 1,
            "componentType" : 5126,
            "count" : 77760,
            "type" : "VEC3"
        },
        {
            "bufferView" : 2,
            "componentType" : 5125,
            "count" : 106920,
            "type" : "SCALAR"
        }
    ],
    "bufferViews" : [
        {
            "buffer" : 0,
            "byteLength" : 933120,
            "byteOffset" : 0
        },
        {
            "buffer" : 0,
            "byteLength" : 933120,
            "byteOffset" : 933120
        },
        {
            "buffer" : 0,
            "byteLength" : 427680,
            "byteOffset" : 1866240
        }
    ],
    "buffers" : [
        {
            "byteLength" : 2293920,
            "uri" : "data:application/octet-stream;base64,"
        }
    ]
}
